<?xml version="1.0" encoding="UTF-8" standalone="no"?>
<!-- Created with Inkscape (http://www.inkscape.org/) -->

<svg
   width="394.68152mm"
   height="93.936989mm"
   viewBox="0 0 394.68152 93.936989"
   version="1.1"
   id="svg5"
   inkscape:version="1.2.2 (1:1.2.2+202212051552+b0a8486541)"
   sodipodi:docname="logo.svg"
   xmlns:inkscape="http://www.inkscape.org/namespaces/inkscape"
   xmlns:sodipodi="http://sodipodi.sourceforge.net/DTD/sodipodi-0.dtd"
   xmlns="http://www.w3.org/2000/svg"
   xmlns:svg="http://www.w3.org/2000/svg">
  <sodipodi:namedview
     id="namedview7"
     pagecolor="#ffffff"
     bordercolor="#000000"
     borderopacity="0.25"
     inkscape:showpageshadow="2"
     inkscape:pageopacity="0.0"
     inkscape:pagecheckerboard="0"
     inkscape:deskcolor="#d1d1d1"
     inkscape:document-units="mm"
     showgrid="false"
     inkscape:zoom="0.23963945"
     inkscape:cx="667.6697"
     inkscape:cy="411.03416"
     inkscape:window-width="1292"
     inkscape:window-height="704"
     inkscape:window-x="74"
     inkscape:window-y="27"
     inkscape:window-maximized="1"
     inkscape:current-layer="layer1" />
  <defs
     id="defs2" />
  <g
     inkscape:label="Слой 1"
     inkscape:groupmode="layer"
     id="layer1"
     transform="translate(-7.4104335,-23.785156)">
    <g
       id="g3556">
      <g
         id="g1360"
         transform="matrix(8.1407814,0,0,8.1407814,-827.01966,-169.8446)"
         style="fill:#004cff;fill-opacity:0.886275">
        <path
           style="color:#000000;fill:#004cff;fill-opacity:0.886275;-inkscape-stroke:none"
           d="m 102.5,31.171875 v 0.400391 3.751953 h 13.3125 v -4.152344 z m 0.79883,0.800781 h 11.71289 v 2.552735 h -11.71289 z"
           id="path1355" />
        <path
           style="color:#000000;fill:#004cff;fill-opacity:0.886275;-inkscape-stroke:none"
           d="m 106.19531,27.585937 v 0.400391 4.025391 h 9.61914 v -4.425782 z m 0.80078,0.800782 h 8.01954 v 2.824218 h -8.01954 z"
           id="path1352" />
        <path
           style="color:#000000;fill:#004cff;fill-opacity:0.886275;-inkscape-stroke:none"
           d="m 109.20313,23.785156 v 0.398438 4.173828 h 6.61328 v -4.572266 z m 0.79882,0.798828 h 5.01563 v 2.972657 h -5.01563 z"
           id="path1349" />
      </g>
      <g
         id="g1412"
         transform="matrix(2.2706363,0,0,2.2706363,-163.18458,5.1909039)"
         style="fill:#004cff;fill-opacity:0.886275">
        <g
           aria-label="money"
           id="text1174"
           style="font-weight:bold;font-size:28.2223px;font-family:Ani;-inkscape-font-specification:'Ani Bold';text-align:end;text-anchor:end;fill:#004cff;fill-opacity:0.886275;stroke:#ff0000;stroke-width:0.799999">
          <path
             d="m 142.85527,13.311007 q 0.93707,-1.433164 2.21865,-2.177306 1.29536,-0.757923 2.83876,-0.757923 2.65962,0 4.05145,1.63987 1.39182,1.63987 1.39182,4.768025 v 9.398246 H 148.395 v -8.047765 q 0.0138,-0.179145 0.0138,-0.372071 0.0138,-0.192926 0.0138,-0.551217 0,-1.63987 -0.48232,-2.370232 -0.48231,-0.744143 -1.55718,-0.744143 -1.40561,0 -2.17731,1.157555 -0.75792,1.157556 -0.78548,3.348642 v 7.579231 h -4.96095 v -8.047765 q 0,-2.563158 -0.44098,-3.29352 -0.44097,-0.744143 -1.57097,-0.744143 -1.41938,0 -2.19108,1.171336 -0.77171,1.157555 -0.77171,3.321081 v 7.593011 h -4.96095 v -15.43407 h 4.96095 v 2.259989 q 0.90951,-1.30914 2.08085,-1.9706 1.18511,-0.66146 2.6045,-0.66146 1.59853,0 2.82498,0.771703 1.22646,0.771704 1.86036,2.163526 z"
             style="font-family:KacstLetter;-inkscape-font-specification:'KacstLetter Bold';text-align:start;text-anchor:start;fill:#004cff;fill-opacity:0.886275;stroke:none;stroke-width:0.8"
             id="path1372" />
          <path
             d="m 165.30357,13.903565 q -1.63987,0 -2.50803,1.185116 -0.85439,1.171336 -0.85439,3.389983 0,2.218648 0.85439,3.403764 0.86816,1.171336 2.50803,1.171336 1.61231,0 2.4667,-1.171336 0.85438,-1.185116 0.85438,-3.403764 0,-2.218647 -0.85438,-3.389983 -0.85439,-1.185116 -2.4667,-1.185116 z m 0,-3.527787 q 3.98254,0 6.21497,2.149745 2.24621,2.149746 2.24621,5.953141 0,3.803396 -2.24621,5.953142 -2.23243,2.149745 -6.21497,2.149745 -3.99632,0 -6.25631,-2.149745 -2.24621,-2.149746 -2.24621,-5.953142 0,-3.803395 2.24621,-5.953141 2.25999,-2.149745 6.25631,-2.149745 z"
             style="font-family:KacstLetter;-inkscape-font-specification:'KacstLetter Bold';text-align:start;text-anchor:start;fill:#004cff;fill-opacity:0.886275;stroke:none;stroke-width:0.8"
             id="path1374" />
          <path
             d="m 192.86441,16.783673 v 9.398246 h -4.96095 V 24.652293 18.98854 q 0,-1.998161 -0.0965,-2.756084 -0.0827,-0.757923 -0.30317,-1.116214 -0.28939,-0.482315 -0.78548,-0.744143 -0.4961,-0.275608 -1.13,-0.275608 -1.54341,0 -2.42535,1.198897 -0.88195,1.185116 -0.88195,3.29352 v 7.593011 h -4.93339 v -15.43407 h 4.93339 v 2.259989 q 1.11621,-1.350481 2.37023,-1.984381 1.25402,-0.647679 2.76987,-0.647679 2.6734,0 4.05144,1.63987 1.39182,1.63987 1.39182,4.768025 z"
             style="font-family:KacstLetter;-inkscape-font-specification:'KacstLetter Bold';text-align:start;text-anchor:start;fill:#004cff;fill-opacity:0.886275;stroke:none;stroke-width:0.8"
             id="path1376" />
          <path
             d="m 212.84602,18.423543 v 1.405603 h -11.53421 q 0.17915,1.736332 1.25402,2.604499 1.07487,0.868166 3.00413,0.868166 1.55719,0 3.18328,-0.454753 1.63987,-0.468535 3.36242,-1.405603 v 3.803396 q -1.75011,0.66146 -3.50022,0.99219 -1.75012,0.34451 -3.50023,0.34451 -4.18925,0 -6.51814,-2.122184 -2.31511,-2.135965 -2.31511,-5.980703 0,-3.775835 2.27377,-5.93936 2.28755,-2.163526 6.28387,-2.163526 3.63803,0 5.81534,2.191086 2.19108,2.191087 2.19108,5.856679 z m -5.07119,-1.63987 q 0,-1.405603 -0.82683,-2.259989 -0.81304,-0.868166 -2.13596,-0.868166 -1.43316,0 -2.32889,0.813044 -0.89573,0.799265 -1.11622,2.315111 z"
             style="font-family:KacstLetter;-inkscape-font-specification:'KacstLetter Bold';text-align:start;text-anchor:start;fill:#004cff;fill-opacity:0.886275;stroke:none;stroke-width:0.8"
             id="path1378" />
          <path
             d="m 214.55479,10.747849 h 4.93339 l 4.14791,10.473119 3.52779,-10.473119 h 4.93339 l -6.49058,16.894795 q -0.97841,2.576938 -2.28755,3.596689 -1.29536,1.033532 -3.43133,1.033532 h -2.85254 v -3.238399 h 1.5434 q 1.25402,0 1.81902,-0.399632 0.57878,-0.399632 0.89573,-1.433164 l 0.1378,-0.427193 z"
             style="font-family:KacstLetter;-inkscape-font-specification:'KacstLetter Bold';text-align:start;text-anchor:start;fill:#004cff;fill-opacity:0.886275;stroke:none;stroke-width:0.8"
             id="path1380" />
        </g>
        <g
           aria-label="counter"
           id="text1366"
           style="font-weight:bold;font-size:28.2223px;font-family:Ani;-inkscape-font-specification:'Ani Bold';text-align:end;text-anchor:end;fill:#004cff;fill-opacity:0.886275;stroke:#ff0000;stroke-width:0.799999">
          <path
             d="m 141.02247,33.455185 v 4.023883 q -1.00597,-0.689021 -2.02572,-1.019751 -1.00597,-0.330731 -2.09462,-0.330731 -2.06706,0 -3.22462,1.212677 -1.14377,1.198897 -1.14377,3.362423 0,2.163526 1.14377,3.376203 1.15756,1.198896 3.22462,1.198896 1.15755,0 2.19108,-0.34451 1.04732,-0.344511 1.92926,-1.019751 v 4.037663 q -1.15755,0.427193 -2.35645,0.633899 -1.18511,0.220487 -2.38401,0.220487 -4.17547,0 -6.53192,-2.135965 -2.35645,-2.149746 -2.35645,-5.966922 0,-3.817176 2.35645,-5.953141 2.35645,-2.149746 6.53192,-2.149746 1.21268,0 2.38401,0.220487 1.18512,0.206706 2.35645,0.633899 z"
             style="font-family:KacstLetter;-inkscape-font-specification:'KacstLetter Bold';text-align:start;text-anchor:start;fill:#004cff;fill-opacity:0.886275;stroke:none;stroke-width:0.8"
             id="path1383" />
          <path
             d="m 152.62559,36.128586 q -1.63987,0 -2.50804,1.185117 -0.85439,1.171335 -0.85439,3.389983 0,2.218647 0.85439,3.403764 0.86817,1.171335 2.50804,1.171335 1.61231,0 2.46669,-1.171335 0.85439,-1.185117 0.85439,-3.403764 0,-2.218648 -0.85439,-3.389983 -0.85438,-1.185117 -2.46669,-1.185117 z m 0,-3.527787 q 3.98254,0 6.21497,2.149746 2.2462,2.149745 2.2462,5.953141 0,3.803396 -2.2462,5.953141 -2.23243,2.149746 -6.21497,2.149746 -3.99632,0 -6.25631,-2.149746 -2.24621,-2.149745 -2.24621,-5.953141 0,-3.803396 2.24621,-5.953141 2.25999,-2.149746 6.25631,-2.149746 z"
             style="font-family:KacstLetter;-inkscape-font-specification:'KacstLetter Bold';text-align:start;text-anchor:start;fill:#004cff;fill-opacity:0.886275;stroke:none;stroke-width:0.8"
             id="path1385" />
          <path
             d="M 164.50431,42.398677 V 32.97287 h 4.96095 v 1.543407 q 0,1.254019 -0.0138,3.155717 -0.0138,1.887917 -0.0138,2.521816 0,1.860357 0.0965,2.687182 0.0965,0.813045 0.33073,1.185116 0.30317,0.482315 0.78549,0.744143 0.49609,0.261828 1.12999,0.261828 1.54341,0 2.42535,-1.185116 0.88195,-1.185116 0.88195,-3.293521 V 32.97287 h 4.93339 v 15.43407 h -4.93339 v -2.232428 q -1.11621,1.350482 -2.37023,1.998161 -1.24024,0.6339 -2.7423,0.6339 -2.67341,0 -4.07901,-1.63987 -1.39182,-1.63987 -1.39182,-4.768026 z"
             style="font-family:KacstLetter;-inkscape-font-specification:'KacstLetter Bold';text-align:start;text-anchor:start;fill:#004cff;fill-opacity:0.886275;stroke:none;stroke-width:0.8"
             id="path1387" />
          <path
             d="m 200.27828,39.008694 v 9.398246 h -4.96095 v -1.529626 -5.663753 q 0,-1.99816 -0.0965,-2.756084 -0.0827,-0.757923 -0.30317,-1.116214 -0.28939,-0.482314 -0.78549,-0.744142 -0.49609,-0.275609 -1.12999,-0.275609 -1.54341,0 -2.42535,1.198897 -0.88195,1.185116 -0.88195,3.29352 v 7.593011 h -4.93339 V 32.97287 h 4.93339 v 2.259989 q 1.11621,-1.350481 2.37023,-1.98438 1.25402,-0.64768 2.76987,-0.64768 2.6734,0 4.05144,1.63987 1.39182,1.63987 1.39182,4.768025 z"
             style="font-family:KacstLetter;-inkscape-font-specification:'KacstLetter Bold';text-align:start;text-anchor:start;fill:#004cff;fill-opacity:0.886275;stroke:none;stroke-width:0.8"
             id="path1389" />
          <path
             d="m 210.24152,28.590697 v 4.382173 h 5.08498 v 3.527788 h -5.08498 v 6.545699 q 0,1.074873 0.4272,1.460725 0.42719,0.372071 1.69499,0.372071 h 2.53559 v 3.527787 h -4.23058 q -2.92145,0 -4.14791,-1.212676 -1.21268,-1.226458 -1.21268,-4.147907 v -6.545699 h -2.45291 V 32.97287 h 2.45291 v -4.382173 z"
             style="font-family:KacstLetter;-inkscape-font-specification:'KacstLetter Bold';text-align:start;text-anchor:start;fill:#004cff;fill-opacity:0.886275;stroke:none;stroke-width:0.8"
             id="path1391" />
          <path
             d="m 233.75092,40.648564 v 1.405603 H 222.2167 q 0.17915,1.736333 1.25402,2.604499 1.07488,0.868167 3.00413,0.868167 1.55719,0 3.18328,-0.454754 1.63987,-0.468534 3.36242,-1.405603 v 3.803396 q -1.75011,0.66146 -3.50022,0.99219 -1.75012,0.344511 -3.50023,0.344511 -4.18925,0 -6.51814,-2.122185 -2.31511,-2.135965 -2.31511,-5.980702 0,-3.775835 2.27377,-5.939361 2.28755,-2.163526 6.28387,-2.163526 3.63803,0 5.81534,2.191087 2.19109,2.191087 2.19109,5.856678 z m -5.0712,-1.63987 q 0,-1.405603 -0.82682,-2.259989 -0.81305,-0.868166 -2.13597,-0.868166 -1.43316,0 -2.32889,0.813045 -0.89573,0.799264 -1.11621,2.31511 z"
             style="font-family:KacstLetter;-inkscape-font-specification:'KacstLetter Bold';text-align:start;text-anchor:start;fill:#004cff;fill-opacity:0.886275;stroke:none;stroke-width:0.8"
             id="path1393" />
          <path
             d="m 248.95072,37.175898 q -0.64768,-0.303169 -1.29536,-0.440973 -0.6339,-0.151585 -1.28158,-0.151585 -1.90169,0 -2.93523,1.226458 -1.01975,1.212677 -1.01975,3.486446 v 7.110696 h -4.93339 V 32.97287 h 4.93339 v 2.535598 q 0.95085,-1.515847 2.17731,-2.204868 1.24024,-0.702801 2.96279,-0.702801 0.24805,0 0.53744,0.02756 0.28939,0.01378 0.8406,0.08268 z"
             style="font-family:KacstLetter;-inkscape-font-specification:'KacstLetter Bold';text-align:start;text-anchor:start;fill:#004cff;fill-opacity:0.886275;stroke:none;stroke-width:0.8"
             id="path1395" />
        </g>
      </g>
    </g>
  </g>
</svg>
