<?xml version="1.0" encoding="UTF-8" standalone="no"?>
<!-- Created with Inkscape (http://www.inkscape.org/) -->

<svg
   width="142.4037mm"
   height="55.273121mm"
   viewBox="0 0 142.4037 55.273121"
   version="1.1"
   id="svg2497"
   inkscape:version="1.1.2 (b8e25be833, 2022-02-05)"
   sodipodi:docname="logp.svg"
   xmlns:inkscape="http://www.inkscape.org/namespaces/inkscape"
   xmlns:sodipodi="http://sodipodi.sourceforge.net/DTD/sodipodi-0.dtd"
   xmlns="http://www.w3.org/2000/svg"
   xmlns:svg="http://www.w3.org/2000/svg">
  <sodipodi:namedview
     id="namedview2499"
     pagecolor="#ffffff"
     bordercolor="#111111"
     borderopacity="1"
     inkscape:pageshadow="0"
     inkscape:pageopacity="0"
     inkscape:pagecheckerboard="1"
     inkscape:document-units="mm"
     showgrid="false"
     fit-margin-top="0"
     fit-margin-left="0"
     fit-margin-right="0"
     fit-margin-bottom="0"
     inkscape:zoom="0.46235269"
     inkscape:cx="178.43521"
     inkscape:cy="244.40217"
     inkscape:window-width="1366"
     inkscape:window-height="705"
     inkscape:window-x="-8"
     inkscape:window-y="-8"
     inkscape:window-maximized="1"
     inkscape:current-layer="layer1" />
  <defs
     id="defs2494" />
  <g
     inkscape:label="Слой 1"
     inkscape:groupmode="layer"
     id="layer1"
     transform="translate(-189.97448,-71.731143)">
    <g
       id="g2472"
       transform="matrix(5.3336737,0,0,5.3336737,1437.1857,245.10118)">
      <g
         id="g852"
         transform="matrix(0.20214295,0,0,0.20214295,-219.42081,-42.01813)">
        <path
           id="path838"
           style="fill:#0084ff;fill-opacity:1;stroke:none;stroke-width:0.264583px;stroke-linecap:butt;stroke-linejoin:miter;stroke-opacity:1"
           d="m -51.706125,73.59261 -17.04082,13.779521 c 0,0 1.729451,3.791998 9.15603,7.725109 6.56149,3.47496 13.119614,3.227194 13.119614,3.227194 l 0.310575,-22.147485 c -0.007,-0.03792 -0.01413,-0.07332 -0.02119,-0.110588 a 7.1065773,6.8773325 0 0 1 -0.0739,0.0036 7.1065773,6.8773325 0 0 1 -5.450313,-2.477368 z" />
        <path
           id="path840"
           style="fill:#0173e0;fill-opacity:1;stroke:none;stroke-width:0.264583px;stroke-linecap:butt;stroke-linejoin:miter;stroke-opacity:1"
           d="m -70.711683,62.947783 c 0,0 -1.236337,5.793544 -0.177249,11.228771 1.071171,5.497232 4.627623,9.779764 4.627623,9.779764 l 14.205336,-10.800892 a 7.1065773,6.8773325 0 0 1 -1.30638,-3.962548 7.1065773,6.8773325 0 0 1 0.37052,-2.169377 z" />
        <path
           id="path842"
           style="fill:#0964bd;fill-opacity:1;stroke:none;stroke-width:0.264583px;stroke-linecap:butt;stroke-linejoin:miter;stroke-opacity:1"
           d="m -55.736885,47.412296 c 0,0 -4.775391,2.079104 -8.288901,6.053376 -3.561951,4.029067 -4.359423,8.988599 -4.359423,8.988599 l 15.504995,4.260205 a 7.1065773,6.8773325 0 0 1 4.12378,-3.956347 l 0.07907,-0.08268 z" />
        <path
           id="path844"
           style="fill:#0f549b;fill-opacity:1;stroke:none;stroke-width:0.264583px;stroke-linecap:butt;stroke-linejoin:miter;stroke-opacity:1"
           d="m -46.409291,47.062446 c -4.52287,0.01371 -7.745262,1.708941 -7.745262,1.708941 l 5.857005,13.644644 0.542605,0.05994 a 7.1065773,6.8773325 0 0 1 1.499131,-0.160713 7.1065773,6.8773325 0 0 1 3.037541,0.660424 l 0.199472,0.02222 6.853844,-13.529924 c 0,0 -3.785749,-1.962978 -8.801013,-2.352313 -0.493599,-0.03832 -0.975439,-0.05464 -1.443323,-0.05323 z" />
        <path
           id="path846"
           style="fill:#144478;fill-opacity:1;stroke:none;stroke-width:0.264583px;stroke-linecap:butt;stroke-linejoin:miter;stroke-opacity:1"
           d="m -36.500336,51.643045 -6.159828,11.38587 0.3576,0.449066 a 7.1065773,6.8773325 0 0 1 2.76469,3.473691 l 0.22634,0.284221 12.437486,-2.718181 c 0,0 0.182697,-3.371808 -3.091286,-7.699788 -3.421671,-4.523216 -6.535002,-5.174879 -6.535002,-5.174879 z" />
        <path
           id="path848"
           style="fill:#153960;fill-opacity:1;stroke:none;stroke-width:0.264583px;stroke-linecap:butt;stroke-linejoin:miter;stroke-opacity:1"
           d="m -28.799514,65.659762 -10.368875,1.947166 -0.08785,0.398426 a 7.1065773,6.8773325 0 0 1 0.106971,1.187524 7.1065773,6.8773325 0 0 1 -1.213364,3.840075 l -0.05116,0.233061 8.130251,6.559291 c 0,0 2.150758,-2.097935 3.301092,-6.685897 1.267069,-5.053555 0.182933,-7.479646 0.182933,-7.479646 z" />
        <path
           id="path850"
           style="fill:#172d4b;fill-opacity:1;stroke:none;stroke-width:0.264583px;stroke-linecap:butt;stroke-linejoin:miter;stroke-opacity:1"
           d="m -40.439111,73.515611 -0.522968,0.259932 a 7.1065773,6.8773325 0 0 1 -4.531505,2.251028 l -0.376203,0.186549 0.01757,8.011398 c 0,0 3.879326,0.230148 6.68383,-1.251603 2.619235,-1.383861 5.01623,-4.153752 5.01623,-4.153752 z" />
      </g>
      <text
         xml:space="preserve"
         style="font-size:4.93889px;line-height:0;font-family:'Proxima Nova';-inkscape-font-specification:'Proxima Nova';fill:#0084ff;fill-opacity:1;stroke-width:0.264583"
         x="-225.18489"
         y="-28.12282"
         id="text858"><tspan
           sodipodi:role="line"
           id="tspan854"
           style="font-size:4.93889px;line-height:0.75;fill:#0084ff;fill-opacity:1;stroke-width:0.264583"
           x="-225.18489"
           y="-28.12282"
           dy="0 0">  Money</tspan><tspan
           sodipodi:role="line"
           style="font-size:4.93889px;line-height:0.75;fill:#0084ff;fill-opacity:1;stroke-width:0.264583"
           x="-225.18489"
           y="-24.418652"
           id="tspan856">Counter</tspan></text>
    </g>
  </g>
</svg>
